<?xml version="1.0" encoding="utf-8"?>
<!-- Generator: Adobe Illustrator 26.0.0, SVG Export Plug-In . SVG Version: 6.00 Build 0)  -->
<svg version="1.1" id="Layer_1" xmlns="http://www.w3.org/2000/svg" xmlns:xlink="http://www.w3.org/1999/xlink" x="0px" y="0px"
	 viewBox="0 0 1920 5400" style="enable-background:new 0 0 1920 5400;" xml:space="preserve">
<style type="text/css">
	.st0{fill:#4D4D4D;}
	.st1{fill:#595959;}
	.st2{fill:none;stroke:#595959;stroke-width:40;stroke-miterlimit:10;}
	.st3{fill:none;stroke:#595959;stroke-width:35;stroke-miterlimit:10;}
	.st4{fill:none;stroke:#595959;stroke-width:25;stroke-miterlimit:10;}
</style>
<g id="Layer_1_00000069376225553433796190000003836276564331054735_">
	<rect class="st0" width="1920" height="5400"/>
</g>
<g id="Layer_2_00000037682925442318588710000009648993617949171357_">
	<path class="st1" d="M484.3,708.3l-289-80.3c-53-14.7-84.3-70.1-69.6-123.1l80.9-291c14.4-51.9,68.7-82.6,120.7-68.2l291,80.9
		c53,14.7,84.3,70.1,69.6,123.1l-80.3,289C592.7,691.7,537.3,723,484.3,708.3z"/>
	<g>
		<path class="st2" d="M1593.9,569.4c-97.6-97.6-97.6-255.9,0-353.5s255.9-97.6,353.5,0"/>
		<path class="st2" d="M1593.9,569.4c97.6,97.6,97.6,255.9,0,353.5s-255.9,97.6-353.5,0"/>
		<path class="st2" d="M886.8,1276.5c-97.6-97.6-97.6-255.9,0-353.5s255.9-97.6,353.6,0"/>
		<path class="st2" d="M886.8,1276.5c97.6,97.6,97.6,255.9,0,353.6s-255.9,97.6-353.5,0"/>
		<path class="st2" d="M179.7,1983.6c-97.6-97.6-97.6-255.9,0-353.5c97.6-97.6,255.9-97.6,353.5,0"/>
		<path class="st2" d="M179.7,1983.6c97.6,97.6,97.6,255.9,0,353.5s-255.9,97.6-353.5,0"/>
	</g>
	<circle class="st1" cx="297.5" cy="3243.8" r="41.3"/>
	<circle class="st1" cx="178.7" cy="3243.8" r="41.3"/>
	<circle class="st1" cx="416.3" cy="3243.8" r="41.3"/>
	<circle class="st1" cx="1647.2" cy="1356.2" r="41.3"/>
	<circle class="st1" cx="1528.4" cy="1356.2" r="41.3"/>
	<circle class="st1" cx="1766" cy="1356.2" r="41.3"/>
	<g>
		<path class="st1" d="M1202.6,2658.7l-72.7-12.3c3.2-19.3,14-36.5,30-47.8s35.7-15.9,55-12.6L1202.6,2658.7z"/>
		<path class="st3" d="M1057.3,2634.2c6.8-40.1,29.2-73.7,59.9-95.6s69.8-32,109.9-25.2"/>
		<path class="st3" d="M960.5,2617.8c11.3-66.9,48.6-122.8,99.9-159.2c51.2-36.4,116.3-53.3,183.2-42"/>
		<path class="st3" d="M863.6,2601.4c15.8-93.6,68.1-172,139.8-222.9s162.9-74.6,256.5-58.8"/>
		<path class="st3" d="M766.7,2585.1c20.3-120.4,87.5-221.1,179.8-286.7c92.2-65.6,209.4-95.9,329.8-75.6"/>
	</g>
	<path class="st1" d="M1503.7,3421.8l-403.5,405.1c-11.8,11.9-6.4,32.1,9.8,36.5l552.6,146.9c16.2,4.3,31-10.6,26.6-26.8l-149.1-552
		C1535.8,3415.3,1515.5,3409.9,1503.7,3421.8z"/>
</g>
<g>
	<polyline class="st4" points="1109.1,4599 1082.6,4480.4 964,4506.9 	"/>
	<polyline class="st4" points="1109.1,4599 1135.6,4717.6 1254.2,4691.1 	"/>
	<polyline class="st4" points="1399.4,4783.1 1372.8,4664.5 1254.2,4691.1 	"/>
	<polyline class="st4" points="1399.4,4783.1 1425.9,4901.7 1544.5,4875.2 	"/>
	<polyline class="st4" points="1689.6,4967.3 1663.1,4848.7 1544.5,4875.2 	"/>
	<polyline class="st4" points="1689.6,4967.3 1716.1,5085.9 1834.7,5059.4 	"/>
	<polyline class="st4" points="1979.9,5151.5 1953.3,5032.8 1834.7,5059.4 	"/>
	<polyline class="st4" points="1979.9,5151.5 2006.4,5270.1 2125,5243.5 	"/>
	<polyline class="st4" points="528.6,4230.7 502,4112.1 383.4,4138.6 	"/>
	<polyline class="st4" points="528.6,4230.7 555.1,4349.3 673.7,4322.7 	"/>
	<polyline class="st4" points="818.8,4414.8 792.3,4296.2 673.7,4322.7 	"/>
	<polyline class="st4" points="818.8,4414.8 845.4,4533.4 964,4506.9 	"/>
	<polyline class="st4" points="-51.9,3862.4 -78.5,3743.8 -197.1,3770.3 	"/>
	<polyline class="st4" points="-51.9,3862.4 -25.4,3981 93.2,3954.4 	"/>
	<polyline class="st4" points="238.3,4046.5 211.8,3927.9 93.2,3954.4 	"/>
	<polyline class="st4" points="238.3,4046.5 264.8,4165.1 383.4,4138.6 	"/>
</g>
</svg>
