<?xml version="1.0" encoding="utf-8"?>
<!-- Generator: Adobe Illustrator 26.0.0, SVG Export Plug-In . SVG Version: 6.00 Build 0)  -->
<svg version="1.1" xmlns="http://www.w3.org/2000/svg" xmlns:xlink="http://www.w3.org/1999/xlink" x="0px" y="0px"
	 viewBox="0 0 1000 500" style="enable-background:new 0 0 1000 500;" xml:space="preserve">
<style type="text/css">
	.st0{fill:none;}
	.st1{fill:#FFFFFF;}
	.st2{fill:none;stroke:#FFFFFF;stroke-width:20;stroke-miterlimit:10;}
	.st3{fill:none;stroke:#FFFFFF;stroke-width:15;stroke-miterlimit:10;}
</style>
<g id="Layer_1">
	<g id="Background">
		<rect class="st0" width="1000" height="500"/>
	</g>
</g>
<g id="Layer_2">
	<g>
		<path class="st1" d="M261.61,160.8c-1.3-2.44-4.99-1.39-4.83,1.37v0c0.32,5.54,0.49,12.86,0.49,21.97v171.5
			c0,1.42-1.15,2.57-2.57,2.57h-31.48c-1.42,0-2.57-1.15-2.57-2.57V102.73c0-1.42,1.15-2.57,2.57-2.57h31.3
			c0.81,0,1.57,0.38,2.06,1.03l122.59,164.09c1.05,1.4,3.16,1.37,4.17-0.07l114.14-163.95c0.48-0.69,1.27-1.1,2.11-1.1h35.64
			c1.42,0,2.57,1.15,2.57,2.57v252.92c0,1.42-1.15,2.57-2.57,2.57h-34.41c-1.42,0-2.57-1.15-2.57-2.57v-171.5
			c0-2.28,0.28-8.01,0.86-17.21c0.19-3.09,0.36-5.92,0.5-8.49c0.16-2.77-3.57-3.77-4.84-1.32c-1.14,2.18-2.21,4.19-3.23,6.03
			c-2.53,4.56-4.76,8.22-6.71,10.99l-97.87,142.44c-0.48,0.7-1.27,1.11-2.12,1.11h-8.33c-0.82,0-1.59-0.39-2.07-1.05l-101.77-138.6
			c-0.16-0.16-0.57-0.73-1.22-1.71C267.61,171.09,264.33,165.92,261.61,160.8z"/>
	</g>
	<circle class="st2" cx="736.47" cy="227.68" r="50"/>
	<circle class="st2" cx="620.47" cy="158.21" r="50"/>
	<circle class="st2" cx="620.47" cy="297.14" r="50"/>
	<path class="st3" d="M627.47,109.21c13.32,25.65-22.7,27.98-24.47,50c-1.77,22.02,41.49,19.47,24.47,50"/>
	<path class="st3" d="M785.47,247.14c3.14-15.02-81.74,21.86-44.2-14.13c11.89-12.22,5.08-22.1-2.15-25.4
		c-7.16-3.26-15.45,2.83-22.29,9.77c-26.45,26.07-23.75,21.87-29.94,28.34"/>
	<path class="st3" d="M619.35,247.14c11.91-0.69,8.29-3.47,16.65,40.2c8.64,44.44-7.41,9.53-28.5,1.43
		c-30.25-11.22,22.44,54.82,24.88,58.12"/>
	<path class="st1" d="M812.5,399.84h-625c-6.9,0-12.5-5.6-12.5-12.5v0c0-6.9,5.6-12.5,12.5-12.5h625c6.9,0,12.5,5.6,12.5,12.5v0
		C825,394.25,819.4,399.84,812.5,399.84z"/>
</g>
</svg>
