<?xml version="1.0" encoding="utf-8"?>
<!-- Generator: Adobe Illustrator 26.0.0, SVG Export Plug-In . SVG Version: 6.00 Build 0)  -->
<svg version="1.1" xmlns="http://www.w3.org/2000/svg" xmlns:xlink="http://www.w3.org/1999/xlink" x="0px" y="0px"
	 viewBox="0 0 1000 500" style="enable-background:new 0 0 1000 500;" xml:space="preserve">
<style type="text/css">
	.st0{fill:none;}
	.st1{fill:#FFFFFF;}
	.st2{fill:none;stroke:#FFFFFF;stroke-width:10;stroke-miterlimit:10;}
</style>
<g id="Layer_1">
	<g id="Background">
		<rect y="-0.11" class="st0" width="1000" height="500"/>
	</g>
</g>
<g id="Layer_2">
	<g>
		<path class="st1" d="M157.4,97.78c0.95,7.39,1.66,15.13,2.14,23.23c0.47,8.1,0.71,18.82,0.71,32.16v254.8h-53.6V30.23h51.46
			L341.79,276.1L512.97,30.23h57.89v377.73h-57.89v-254.8c0-3.33,0.41-11.73,1.25-25.19c0.83-13.46,1.37-23.52,1.61-30.2
			c-4.77,9.77-9,17.99-12.69,24.66c-3.7,6.67-6.97,12.03-9.83,16.08L348.94,348.64h-16.08L182.77,144.23
			c-0.24-0.23-0.84-1.07-1.79-2.5C170.02,126.72,162.16,112.07,157.4,97.78z"/>
	</g>
	<circle class="st2" cx="861.67" cy="216.89" r="73.19"/>
	<circle class="st2" cx="691.88" cy="115.21" r="73.19"/>
	<circle class="st2" cx="691.88" cy="318.57" r="73.19"/>
	<path class="st2" d="M691.88,42.02c19.5,37.55-33.22,40.95-35.81,73.19c-2.59,32.24,60.73,28.5,35.81,73.19"/>
	<path class="st2" d="M929,245.39c-10.05-1.82-119.4,21.23-64.44-31.46c47.32-45.36,12.62-59.8-22.79-20.95
		c-35.41,38.86-39.56,44.18-52.07,49.72"/>
	<path class="st2" d="M691.88,245.39c1.47-0.59,32.16,24.92,19.92,58.84c-15.86,43.95-8.93,7.88-44.24,0
		c-44.96-10.03-0.15,63.23,31.7,87.17"/>
	<path class="st1" d="M965.72,465.24H34.28c-5.5,0-10-4.5-10-10v-9.28c0-5.5,4.5-10,10-10h931.44c5.5,0,10,4.5,10,10v9.28
		C975.72,460.74,971.22,465.24,965.72,465.24z"/>
	<g>
	</g>
	<g>
	</g>
	<g>
	</g>
	<g>
	</g>
	<g>
	</g>
	<g>
	</g>
	<g>
	</g>
	<g>
	</g>
	<g>
	</g>
	<g>
	</g>
	<g>
	</g>
	<g>
	</g>
	<g>
	</g>
	<g>
	</g>
	<g>
	</g>
</g>
</svg>
