<?xml version="1.0" encoding="utf-8"?>
<!-- Generator: Adobe Illustrator 26.0.0, SVG Export Plug-In . SVG Version: 6.00 Build 0)  -->
<svg version="1.1" xmlns="http://www.w3.org/2000/svg" xmlns:xlink="http://www.w3.org/1999/xlink" x="0px" y="0px"
	 viewBox="0 0 1000 1000" style="enable-background:new 0 0 1000 1000;" xml:space="preserve">
<style type="text/css">
	.st0{fill:none;}
	.st1{fill:#FFFFFF;}
</style>
<g id="Layer_1">
	<rect id="Background" x="0" class="st0" width="1000" height="1000"/>
</g>
<g id="Layer_2">
	<g>
		<path class="st0" d="M205.84,196.12c215.72,0,431.45,0,647.17,0c0,215.72,0,431.45,0,647.17c-215.72,0-431.45,0-647.17,0
			C205.84,627.57,205.84,411.85,205.84,196.12z M530.46,223.78c-19.39-0.51-40.77,2.47-61.85,7.92
			c-43.24,11.19-78.87,33.12-101.97,72.55c-13.19,22.52-20.39,46.4-12.64,72.41c6.42,21.59,20.35,36.36,43.24,40.18
			c23.41,3.91,43.56-5.95,55.51-26.45c4.53-7.78,8.24-16.07,11.86-24.34c4.21-9.62,10.79-17.09,19.61-22.45
			c22.83-13.91,47.51-15.85,72.24-7.52c30.11,10.14,39.95,42.55,20.96,67.98c-7.32,9.8-16.69,18.42-26.32,26.08
			c-39.1,31.08-67.58,68.33-76.9,119c-7.38,40.15,16.31,73.87,53.38,77.14c22.55,1.99,44.95-8.26,54.2-30.62
			c2.24-5.42,3.7-11.16,5.45-16.78c10.03-32.27,25.5-60.82,54.32-80.45c4.49-3.06,8.43-6.97,12.46-10.66
			c31.6-28.97,51.57-63.48,53.88-107.46c3.6-68.54-35.93-117.02-86.36-140.06C593.45,227.43,563.44,223.76,530.46,223.78z
			 M467.39,750.47c2.24,8.87,3.47,18.17,6.91,26.55c14.99,36.53,59.53,50.15,90.82,28.26c28.21-19.73,36.92-58.83,19.5-88.7
			c-12.64-21.65-31.78-33.58-56.81-31.61C492.5,687.73,469.21,714.56,467.39,750.47z"/>
		<path class="st1" d="M530.46,223.78c32.99-0.02,62.99,3.65,91.05,16.46c50.44,23.03,89.96,71.52,86.36,140.06
			c-2.31,43.98-22.28,78.49-53.88,107.46c-4.03,3.69-7.97,7.61-12.46,10.66c-28.82,19.63-44.28,48.18-54.32,80.45
			c-1.75,5.62-3.21,11.36-5.45,16.78c-9.25,22.36-31.65,32.61-54.2,30.62c-37.06-3.27-60.76-36.99-53.38-77.14
			c9.32-50.67,37.8-87.91,76.9-119c9.63-7.66,19-16.28,26.32-26.08c18.99-25.43,9.14-57.84-20.96-67.98
			c-24.72-8.32-49.41-6.38-72.24,7.52c-8.81,5.37-15.39,12.84-19.61,22.45c-3.62,8.26-7.32,16.56-11.86,24.34
			c-11.95,20.5-32.1,30.35-55.51,26.45c-22.89-3.82-36.82-18.59-43.24-40.18c-7.74-26.01-0.55-49.89,12.64-72.41
			c23.09-39.43,58.73-61.35,101.97-72.55C489.69,226.25,511.06,223.27,530.46,223.78z"/>
		<path class="st1" d="M467.39,750.47c1.83-35.91,25.11-62.73,60.41-65.5c25.03-1.96,44.17,9.96,56.81,31.61
			c17.43,29.86,8.71,68.96-19.5,88.7c-31.29,21.89-75.83,8.27-90.82-28.26C470.85,768.63,469.63,759.34,467.39,750.47z"/>
	</g>
	<g>
		<path class="st0" d="M-42.48,567.72c96.91-100.75,193.82-201.49,290.73-302.24c100.75,96.91,201.49,193.82,302.24,290.73
			C453.58,656.96,356.67,757.7,259.76,858.45C159.01,761.54,58.26,664.63-42.48,567.72z M116.26,428.55
			c-8.95,8.83-17.16,20.15-24.08,32.44c-14.2,25.22-19.97,51.71-11.93,80.21c4.59,16.28,12.51,30.36,28.14,38.44
			c12.97,6.7,26.12,6.83,38.19-2.14c12.34-9.18,16.79-23.02,12.58-37.8c-1.59-5.61-3.81-11.07-6.04-16.47
			c-2.6-6.29-3.13-12.72-1.68-19.24c3.76-16.91,13.94-29.31,28.94-37.12c18.26-9.51,37.82,0.46,41.16,20.75
			c1.29,7.82,1.1,16.07,0.35,24.01c-3.05,32.23,1.55,62.26,21.03,89.37c15.43,21.48,41.82,25.56,60,9.72
			c11.06-9.64,16.34-24.71,10.05-39.07c-1.52-3.48-3.55-6.74-5.39-10.08c-10.56-19.18-16.95-39.23-13.17-61.51
			c0.59-3.47,0.53-7.07,0.62-10.61c0.67-27.77-6.48-52.6-25.98-73.44c-30.39-32.47-70.79-35.79-104.2-22.58
			C146.26,400.77,131.07,413.13,116.26,428.55z M333.9,694.61c5.15,2.94,10.04,6.54,15.5,8.7c23.79,9.41,50.16-5.27,53.99-29.72
			c3.46-22.04-10.89-43.67-32.66-48.95c-15.79-3.82-29.96-0.24-40.29,12.33C315.88,654.69,317.95,677.62,333.9,694.61z"/>
		<path class="st1" d="M116.26,428.55c14.81-15.42,30-27.78,48.59-35.13c33.41-13.21,73.81-9.89,104.2,22.58
			c19.5,20.83,26.65,45.67,25.98,73.44c-0.09,3.54-0.03,7.14-0.62,10.61c-3.78,22.28,2.61,42.33,13.17,61.51
			c1.84,3.34,3.86,6.6,5.39,10.08c6.29,14.36,1.01,29.43-10.05,39.07c-18.18,15.84-44.57,11.76-60-9.72
			c-19.48-27.11-24.08-57.15-21.03-89.37c0.75-7.94,0.94-16.19-0.35-24.01c-3.35-20.29-22.91-30.25-41.16-20.75
			c-14.99,7.81-25.17,20.21-28.94,37.12c-1.45,6.53-0.92,12.96,1.68,19.24c2.23,5.4,4.44,10.86,6.04,16.47
			c4.2,14.79-0.24,28.63-12.58,37.8c-12.07,8.97-25.22,8.84-38.19,2.14c-15.63-8.07-23.55-22.16-28.14-38.44
			c-8.04-28.5-2.27-54.99,11.93-80.21C99.1,448.7,107.31,437.37,116.26,428.55z"/>
		<path class="st1" d="M333.9,694.61c-15.95-16.98-18.01-39.91-3.45-57.64c10.33-12.57,24.5-16.16,40.29-12.33
			c21.78,5.27,36.12,26.91,32.66,48.95c-3.83,24.45-30.2,39.13-53.99,29.72C343.94,701.15,339.05,697.54,333.9,694.61z"/>
	</g>
	<g>
		<path class="st0" d="M735.01,156.7c105.83,33.82,211.65,67.64,317.48,101.45c-33.82,105.83-67.64,211.65-101.45,317.48
			C845.2,541.82,739.38,508,633.55,474.18C667.37,368.35,701.19,262.53,735.01,156.7z M889.91,221.16
			c-9.43-3.29-20.39-5.18-31.58-5.81c-22.96-1.29-43.88,3.88-61.39,19.6c-10,8.98-17.27,19.57-17.55,33.54
			c-0.23,11.6,4.28,21.03,14.91,26.49c10.87,5.59,22.3,3.91,31.38-4.27c3.44-3.1,6.56-6.59,9.63-10.08
			c3.57-4.06,7.97-6.69,13.14-7.94c13.38-3.24,25.79-0.33,36.62,7.63c13.18,9.69,12.93,27.13-0.37,36.63
			c-5.13,3.66-11.08,6.42-17,8.67c-24.05,9.12-43.86,22.92-56.38,46.32c-9.91,18.54-3.58,38.79,14.09,46.21
			c10.75,4.51,23.35,2.99,31.39-6.52c1.95-2.31,3.57-4.9,5.3-7.38c9.98-14.26,22.04-25.84,39.26-30.95c2.68-0.8,5.23-2.1,7.78-3.28
			c20.04-9.26,35.25-23.06,43.28-44.27c12.51-33.06,0.72-63.04-20.41-82.24C920.24,232.82,906.1,226.32,889.91,221.16z
			 M776.41,469.64c-0.29,4.7-1.15,9.46-0.77,14.11c1.63,20.27,21.34,33.93,40.12,28.1c16.93-5.26,27.34-23.07,23.47-40.45
			c-2.81-12.6-10.33-21.45-22.91-24.41C798.56,442.8,782.93,452.31,776.41,469.64z"/>
		<path class="st1" d="M889.91,221.16c16.19,5.16,30.33,11.66,42.08,22.35c21.13,19.21,32.92,49.19,20.41,82.24
			c-8.03,21.21-23.23,35.01-43.28,44.27c-2.56,1.18-5.1,2.48-7.78,3.28c-17.22,5.11-29.28,16.69-39.26,30.95
			c-1.74,2.48-3.36,5.07-5.3,7.38c-8.04,9.52-20.64,11.03-31.39,6.52c-17.67-7.41-24.01-27.67-14.09-46.21
			c12.51-23.4,32.32-37.2,56.38-46.32c5.92-2.25,11.87-5,17-8.67c13.3-9.5,13.55-26.94,0.37-36.63
			c-10.82-7.96-23.24-10.88-36.62-7.63c-5.16,1.25-9.56,3.88-13.14,7.94c-3.07,3.49-6.19,6.98-9.63,10.08
			c-9.08,8.18-20.5,9.86-31.38,4.27c-10.63-5.46-15.15-14.89-14.91-26.49c0.28-13.97,7.55-24.56,17.55-33.54
			c17.51-15.72,38.43-20.89,61.39-19.6C869.52,215.98,880.48,217.87,889.91,221.16z"/>
		<path class="st1" d="M776.41,469.64c6.52-17.33,22.15-26.84,39.9-22.66c12.59,2.96,20.11,11.81,22.91,24.41
			c3.87,17.38-6.54,35.2-23.47,40.45c-18.78,5.83-38.49-7.83-40.12-28.1C775.26,479.1,776.12,474.35,776.41,469.64z"/>
	</g>
	<g>
		<path class="st0" d="M242.46,166.07c40.65,23.78,81.3,47.56,121.95,71.35c-23.78,40.65-47.56,81.3-71.35,121.95
			c-40.65-23.78-81.3-47.56-121.95-71.35C194.9,247.37,218.68,206.72,242.46,166.07z M300.58,207.07c-3.6-2.24-7.95-4.03-12.53-5.33
			c-9.38-2.66-18.51-2.45-27.21,2.43c-4.97,2.79-8.96,6.5-10.37,12.25c-1.17,4.78-0.17,9.09,3.72,12.34
			c3.98,3.32,8.86,3.68,13.37,1.14c1.71-0.97,3.32-2.12,4.92-3.28c1.85-1.35,3.92-2.03,6.17-2.07c5.84-0.1,10.7,2.25,14.44,6.55
			c4.56,5.23,2.84,12.42-3.54,15.12c-2.46,1.04-5.18,1.63-7.83,2.01c-10.79,1.55-20.27,5.42-27.61,13.95
			c-5.82,6.75-5.07,15.72,1.55,20.42c4.03,2.86,9.38,3.4,13.59,0.21c1.02-0.77,1.93-1.7,2.88-2.56c5.45-4.97,11.51-8.65,19.1-9.17
			c1.18-0.08,2.36-0.38,3.52-0.64c9.15-1.97,16.72-6.28,22-14.31c8.23-12.52,6.13-26.01-0.83-35.91
			C312.05,214.7,306.8,210.7,300.58,207.07z M230.63,299.36c-0.56,1.92-1.35,3.81-1.62,5.76c-1.2,8.54,5.69,16.01,14,15.34
			c7.49-0.61,13.44-7.02,13.45-14.56c0.01-5.47-2.29-9.83-7.22-12.22C242.28,290.31,234.93,292.79,230.63,299.36z"/>
		<path class="st1" d="M300.58,207.07c6.22,3.63,11.47,7.63,15.34,13.14c6.96,9.9,9.07,23.39,0.83,35.91
			c-5.28,8.03-12.85,12.33-22,14.31c-1.17,0.25-2.34,0.55-3.52,0.64c-7.6,0.52-13.66,4.2-19.1,9.17c-0.95,0.87-1.86,1.79-2.88,2.56
			c-4.21,3.19-9.56,2.66-13.59-0.21c-6.62-4.7-7.37-13.67-1.55-20.42c7.34-8.52,16.81-12.4,27.61-13.95
			c2.66-0.38,5.38-0.97,7.83-2.01c6.38-2.7,8.1-9.89,3.54-15.12c-3.74-4.29-8.61-6.65-14.44-6.55c-2.25,0.04-4.32,0.72-6.17,2.07
			c-1.59,1.16-3.21,2.31-4.92,3.28c-4.51,2.54-9.39,2.18-13.37-1.14c-3.89-3.24-4.89-7.56-3.72-12.34
			c1.41-5.76,5.4-9.46,10.37-12.25c8.7-4.88,17.83-5.09,27.21-2.43C292.62,203.04,296.98,204.83,300.58,207.07z"/>
		<path class="st1" d="M230.63,299.36c4.3-6.57,11.65-9.05,18.6-5.68c4.93,2.39,7.23,6.75,7.22,12.22
			c-0.01,7.55-5.96,13.95-13.45,14.56c-8.31,0.68-15.2-6.8-14-15.34C229.28,303.16,230.08,301.28,230.63,299.36z"/>
	</g>
	<g>
		<path class="st0" d="M644.91,631.93c37.3-28.75,74.6-57.51,111.89-86.26c28.75,37.3,57.51,74.6,86.26,111.89
			c-37.3,28.75-74.6,57.51-111.89,86.26C702.42,706.53,673.67,669.23,644.91,631.93z M704.72,593.45c-3.42,2.5-6.72,5.86-9.64,9.61
			c-5.98,7.7-9.22,16.24-7.96,26.13c0.72,5.65,2.66,10.74,7.47,14.21c3.99,2.88,8.36,3.57,12.83,1.18
			c4.57-2.44,6.74-6.83,6.07-11.97c-0.25-1.95-0.72-3.88-1.19-5.79c-0.55-2.22-0.41-4.39,0.4-6.5c2.09-5.45,6.1-9.07,11.49-10.93
			c6.56-2.26,12.58,2.03,12.69,8.96c0.04,2.67-0.43,5.41-1.08,8.02c-2.62,10.59-2.58,20.82,2.57,30.82
			c4.07,7.92,12.67,10.6,19.51,6.22c4.16-2.66,6.67-7.42,5.29-12.52c-0.33-1.24-0.85-2.42-1.29-3.63
			c-2.57-6.92-3.7-13.91-1.33-21.15c0.37-1.13,0.53-2.33,0.73-3.5c1.6-9.22,0.45-17.85-5.01-25.76
			c-8.51-12.33-21.81-15.44-33.6-12.7C716.1,585.68,710.42,589.05,704.72,593.45z M764.02,692.91c1.57,1.24,3.02,2.68,4.73,3.67
			c7.46,4.32,16.98,0.74,19.47-7.22c2.25-7.17-1.46-15.09-8.45-17.93c-5.07-2.06-9.97-1.57-14.04,2.11
			C760,678.72,759.55,686.46,764.02,692.91z"/>
		<path class="st1" d="M704.72,593.45c5.7-4.4,11.38-7.77,17.94-9.29c11.79-2.74,25.09,0.37,33.6,12.7
			c5.46,7.91,6.61,16.54,5.01,25.76c-0.2,1.18-0.36,2.38-0.73,3.5c-2.37,7.24-1.23,14.23,1.33,21.15c0.45,1.2,0.96,2.39,1.29,3.63
			c1.38,5.1-1.13,9.86-5.29,12.52c-6.84,4.38-15.44,1.7-19.51-6.22c-5.14-10-5.18-20.24-2.57-30.82c0.64-2.61,1.12-5.35,1.08-8.02
			c-0.11-6.93-6.13-11.22-12.69-8.96c-5.38,1.86-9.39,5.48-11.49,10.93c-0.81,2.1-0.95,4.27-0.4,6.5c0.48,1.91,0.94,3.84,1.19,5.79
			c0.67,5.14-1.5,9.53-6.07,11.97c-4.47,2.39-8.84,1.69-12.83-1.18c-4.81-3.47-6.74-8.55-7.47-14.21
			c-1.26-9.9,1.98-18.44,7.96-26.13C698,599.31,701.3,595.94,704.72,593.45z"/>
		<path class="st1" d="M764.02,692.91c-4.47-6.45-4.02-14.19,1.71-19.38c4.07-3.68,8.97-4.17,14.04-2.11
			c6.99,2.84,10.7,10.76,8.45,17.93c-2.49,7.96-12.01,11.54-19.47,7.22C767.04,695.59,765.59,694.15,764.02,692.91z"/>
	</g>
</g>
</svg>
