<?xml version="1.0" encoding="utf-8"?>
<!-- Generator: Adobe Illustrator 26.0.0, SVG Export Plug-In . SVG Version: 6.00 Build 0)  -->
<svg version="1.1" xmlns="http://www.w3.org/2000/svg" xmlns:xlink="http://www.w3.org/1999/xlink" x="0px" y="0px"
	 viewBox="0 0 1000 1000" style="enable-background:new 0 0 1000 1000;" xml:space="preserve">
<style type="text/css">
	.st0{fill:none;}
	.st1{fill:#FFFFFF;}
	.st2{fill:url(#SVGID_1_);}
</style>
<g id="Layer_1">
	<g id="Background">
		<rect class="st0" width="1000" height="1000"/>
	</g>
</g>
<g id="Layer_2">
	<g>
		<path class="st1" d="M105.63,872.28V749.04c0-10.96,8.89-19.85,19.85-19.85h716.49c10.96,0,19.85,8.89,19.85,19.85v123.24
			c0,10.96-8.89,19.85-19.85,19.85H125.48C114.52,892.13,105.63,883.25,105.63,872.28z"/>
		<path class="st1" d="M312.76,534.25v24.17c0,9.2-6.33,17.17-15.28,19.32c-20.01,4.8-25.95,9.56-29.71,27.71
			c-2.55,12.34,6.82,23.94,19.43,23.94h389.33c13.22,0,22.75-12.68,19.07-25.38c-1.14-3.94-2.27-7.84-3.4-11.75
			c-2.33-8.05-9.47-13.77-17.83-14.29c-1.08-0.07-2.16-0.14-3.25-0.2c-10.46-0.65-18.61-9.33-18.61-19.81v-23.55
			c0-10.96,8.87-19.84,19.83-19.85c32.44-0.04,65.06-0.1,97.68,0.35c3.73,0.05,9.21,4.06,10.82,7.62
			c22.16,49.1,43.96,98.37,66.39,149c5.81,13.12-3.79,27.9-18.15,27.9H135.95c-14.3,0-23.91-14.66-18.2-27.77
			c5.77-13.25,11.41-26.19,17.11-39.11c15.01-34.05,29.51-68.34,45.71-101.82c3.39-7.01,13-15.23,20.06-15.53
			c30.2-1.3,60.47-0.94,92.37-0.78C303.92,514.45,312.76,523.32,312.76,534.25z"/>
		<linearGradient id="SVGID_1_" gradientUnits="userSpaceOnUse" x1="482.1165" y1="607.3915" x2="482.1165" y2="358.9985">
			<stop  offset="0" style="stop-color:#00FFFF"/>
			<stop  offset="1" style="stop-color:#662D91"/>
		</linearGradient>
		<path class="st2" d="M608.28,607.39H355.95c-10.96,0-19.85-8.89-19.85-19.85V378.85c0-10.96,8.89-19.85,19.85-19.85h63.57
			c14,0,23.53,14.08,18.46,27.13c-1.86,4.79-3.1,9.57-3.11,14.36c-0.02,15.22,5.25,35.92,15.95,44.04c9.21,6.99,32.34,4.7,44-2.33
			c35.26-21.25,67.85-46.92,101.69-70.56c0.18-0.12,0.36-0.25,0.53-0.37c13.14-9.08,31.08,0.4,31.08,16.38v199.9
			C628.13,598.5,619.24,607.39,608.28,607.39z"/>
		<path class="st1" d="M664.95,155.58c10.23,0.94,18.08,9.51,18.08,19.78c0,22.9,0,45.36-0.02,67.81c0,1.61,0.21,3.61-0.61,4.76
			c-17.98,25.08-32.19,54.67-55.04,74.06c-41.82,35.49-88.34,65.58-133.93,96.39c-2.71,1.83-5.84,3.02-9.21,3.87
			c-12.7,3.18-24.85-7-24.34-20.08c0.28-7.14,1.3-13.74,4.78-18.59c18.27-25.51,41.52-47.43,62.46-71.07
			c0.06-0.07,0.12-0.14,0.19-0.21c11.17-12.68,2.1-32.85-14.8-32.84c-14.21,0.01-26.37,6.88-32.12,19.48
			c-15.52,33.99-19.14,39.92-48.4,36.48c-11.42-1.34-19.36-12.14-17.14-23.42C431.99,224.81,548.21,144.87,664.95,155.58z"/>
		<path class="st1" d="M874.52,271.37H725.81c-10.96,0-19.85-8.89-19.85-19.85v-123.8c0-10.96,8.89-19.85,19.85-19.85h148.71
			c10.96,0,19.85,8.89,19.85,19.85v123.8C894.37,262.48,885.48,271.37,874.52,271.37z"/>
	</g>
</g>
</svg>
